P2
3 3 
250
200 250 200
250 250 250
200 250 200
